# File created by Blade
# Date/Time:  Thu Jan 22 15:33:01 2015
# Frame Rate: 120.000 fps
#------------------------------------------------------
:FULLY-SPECIFIED
:DEGREES
2042
root 7.804480 20.516580 6.347342 369.102445 -78.028961 -524.492342
RightUpLeg -43.522301 -2.452560 3.848378
RightLeg 13.443931 -0.000000 -0.000000
RightFoot 43.963008 23.515324 -30.647783
RightToeBase -79.869187 -0.000000 0.000000
LeftUpLeg -45.167532 -1.810423 -4.964752
LeftLeg 16.299640 -0.000000 -0.000000
LeftFoot 36.980590 -3.351620 -5.681143
LeftToeBase 33.163471 -0.000000 -0.000000
Spine -16.048453 -5.526336 1.469100
RightShoulder -170.968778 40.870297 155.712197
RightArm 143.967004 59.223536 79.159588
RightForeArm 67.088966 -0.000000 110.567828
RightHand 14.560356 -0.000000 -9.791705
RightHandThumb1 -24.326973 -0.000000 -32.862282
LeftShoulder -9.780245 58.783220 23.784483
LeftArm 11.658615 56.907586 -58.969685
LeftForeArm -25.882495 -0.000000 113.179327
LeftHand -21.625533 -0.000000 -1.900748
LeftHandThumb1 -26.253704 0.000000 33.147579
Head 96.614922 2.406908 -22.511622
2043
root 7.820256 20.529709 6.364963 369.077198 -77.890768 -524.099672
RightUpLeg -43.179857 -2.431719 3.719042
RightLeg 13.435067 -0.000000 -0.000000
RightFoot 43.813612 23.743001 -30.729450
RightToeBase -79.834954 -0.000000 0.000000
LeftUpLeg -44.754900 -1.899794 -4.899460
LeftLeg 16.190183 -0.000000 -0.000000
LeftFoot 37.039411 -3.410210 -5.790202
LeftToeBase 32.938552 -0.000000 -0.000000
Spine -16.489632 -5.572811 1.455091
RightShoulder -171.005952 40.625014 155.357094
RightArm 143.591669 59.145933 78.691095
RightForeArm 67.107710 -0.000000 110.618273
RightHand 14.536394 -0.000000 -9.730871
RightHandThumb1 -24.326973 -0.000000 -32.862282
LeftShoulder -9.760720 58.656274 24.029698
LeftArm 11.908605 57.048016 -58.805527
LeftForeArm -26.045309 -0.000000 113.228659
LeftHand -21.892161 0.000000 -1.737458
LeftHandThumb1 -26.253704 0.000000 33.147579
Head 96.587931 2.231681 -22.544729
2044
root 7.826629 20.539715 6.379103 369.097181 -77.778876 -523.739561
RightUpLeg -42.884630 -2.369233 3.588382
RightLeg 13.417631 -0.000000 -0.000000
RightFoot 43.737119 23.956706 -30.820730
RightToeBase -79.832794 -0.000000 0.000000
LeftUpLeg -44.420674 -1.959228 -4.845859
LeftLeg 16.135095 -0.000000 -0.000000
LeftFoot 37.070459 -3.340349 -6.028032
LeftToeBase 33.351395 -0.000000 -0.000000
Spine -16.920095 -5.635606 1.447642
RightShoulder -171.096592 40.421622 155.047508
RightArm 143.362445 59.113372 78.386632
RightForeArm 67.127368 -0.000000 110.721123
RightHand 14.454698 -0.000000 -9.693150
RightHandThumb1 -24.326973 -0.000000 -32.862282
LeftShoulder -9.775093 58.508885 24.243364
LeftArm 12.127140 57.176419 -58.673943
LeftForeArm -26.345273 0.000000 113.270805
LeftHand -22.027030 -0.000000 -1.630298
LeftHandThumb1 -26.253704 0.000000 33.147579
Head 96.509138 2.122630 -22.631141
2045
root 7.819455 20.548343 6.392287 369.110240 -77.659974 -523.354051
RightUpLeg -42.669108 -2.288691 3.430129
RightLeg 13.447118 -0.000000 -0.000000
RightFoot 43.735063 24.099927 -30.835485
RightToeBase -79.629012 -0.000000 0.000000
LeftUpLeg -44.118040 -2.192311 -4.676987
LeftLeg 16.035644 -0.000000 -0.000000
LeftFoot 37.142595 -3.206917 -6.226018
LeftToeBase 33.105803 -0.000000 -0.000000
Spine -17.317039 -5.697711 1.437108
RightShoulder -171.149702 40.197811 154.742735
RightArm 143.124329 59.144432 78.063859
RightForeArm 67.085492 -0.000000 110.827015
RightHand 14.465192 -0.000000 -9.911633
RightHandThumb1 -24.326973 -0.000000 -32.862282
LeftShoulder -9.665332 58.261117 24.508540
LeftArm 12.054738 57.329310 -58.796635
LeftForeArm -26.485442 0.000000 113.302273
LeftHand -21.899700 -0.000000 -1.644188
LeftHandThumb1 -26.253704 0.000000 33.147579
Head 96.404634 1.982035 -22.687614
2046
root 7.804118 20.557662 6.402069 369.327131 -77.594492 -523.163934
RightUpLeg -42.513325 -2.119595 3.295569
RightLeg 13.494709 -0.000000 -0.000000
RightFoot 43.663534 24.363838 -30.951548
RightToeBase -79.779413 -0.000000 0.000000
LeftUpLeg -43.977730 -2.012579 -4.743987
LeftLeg 16.175834 -0.000000 -0.000000
LeftFoot 37.190394 -3.525931 -6.158542
LeftToeBase 33.129095 -0.000000 -0.000000
Spine -17.695652 -5.715414 1.462766
RightShoulder -171.138237 39.962427 154.503021
RightArm 142.906710 59.253056 77.819488
RightForeArm 67.081033 -0.000000 110.944901
RightHand 14.474701 -0.000000 -10.102295
RightHandThumb1 -24.326973 -0.000000 -32.862282
LeftShoulder -9.534314 57.978502 24.779552
LeftArm 11.866425 57.388589 -59.015965
LeftForeArm -26.637094 -0.000000 113.350612
LeftHand -22.064772 -0.000000 -1.943811
LeftHandThumb1 -26.253704 0.000000 33.147579
Head 96.254850 1.848889 -22.738607
2047
root 7.778429 20.561679 6.413519 369.455649 -77.523336 -522.877930
RightUpLeg -42.401627 -1.994710 3.159340
RightLeg 13.520839 -0.000000 -0.000000
RightFoot 43.632528 24.660801 -31.012351
RightToeBase -79.977287 -0.000000 0.000000
LeftUpLeg -43.843612 -1.921955 -4.794973
LeftLeg 16.216148 -0.000000 -0.000000
LeftFoot 37.318258 -3.521335 -6.172916
LeftToeBase 33.155794 -0.000000 -0.000000
Spine -18.029183 -5.770714 1.483629
RightShoulder -171.114819 39.763018 154.293274
RightArm 142.850992 59.343431 77.749680
RightForeArm 67.129461 -0.000000 111.039325
RightHand 14.425803 0.000000 -10.084683
RightHandThumb1 -24.326973 -0.000000 -32.862282
LeftShoulder -9.360544 57.604674 25.015436
LeftArm 11.355544 57.506925 -59.527134
LeftForeArm -26.523797 -0.000000 113.306349
LeftHand -21.897361 -0.000000 -2.224894
LeftHandThumb1 -26.253704 0.000000 33.147579
Head 96.067266 1.747343 -22.835982
2048
root 7.739842 20.563202 6.423701 369.667555 -77.456076 -522.652529
RightUpLeg -42.349590 -1.857826 3.023077
RightLeg 13.513550 -0.000000 -0.000000
RightFoot 43.552435 24.888880 -31.029411
RightToeBase -79.817741 -0.000000 0.000000
LeftUpLeg -43.759801 -1.894470 -4.775309
LeftLeg 16.205625 -0.000000 -0.000000
LeftFoot 37.394745 -3.553429 -6.190539
LeftToeBase 33.089565 -0.000000 -0.000000
Spine -18.364345 -5.793754 1.525037
RightShoulder -171.086087 39.514816 154.081184
RightArm 142.652679 59.419807 77.542397
RightForeArm 67.103794 -0.000000 111.106660
RightHand 14.402644 -0.000000 -10.031483
RightHandThumb1 -24.326973 -0.000000 -32.862282
LeftShoulder -9.232809 57.282261 25.260381
LeftArm 11.188699 57.562736 -59.730876
LeftForeArm -26.637722 -0.000000 113.199479
LeftHand -21.845185 -0.000000 -2.526255
LeftHandThumb1 -26.253704 0.000000 33.147579
Head 95.850743 1.630539 -22.953815
